<svg xmlns="http://www.w3.org/2000/svg" viewBox="0 0 289.46 214.8"><defs><style>.cls-1{fill:#464646;}.cls-2,.cls-3,.cls-4,.cls-5{fill:none;stroke:#464646;stroke-miterlimit:10;}.cls-2{stroke-width:1.46px;}.cls-3{stroke-width:1.49px;}.cls-5{stroke-width:0.5px;}</style></defs><g id="Layer_2" data-name="Layer 2"><g id="scaling"><path class="cls-1" d="M.91,171c46.23-7.71,40.17-127.91,60.7-138.17,13.77-6.89,24.73,103.74,39.53,103.76C118.37,136.63,128.67,0,144.73,0c17.47,0,20.85,154.35,48.53,155.59,9.14.41,14.14-17,29.32-17.49,11.62-.4,25,19.14,39.15,32.9C175.26,170.72,87,171,.91,171Z"/><rect class="cls-2" x="0.73" y="180" width="288" height="34.07"/><line class="cls-3" x1="72.73" y1="180" x2="72.73" y2="198"/><line class="cls-3" x1="144.73" y1="180" x2="144.73" y2="198"/><line class="cls-4" x1="216.73" y1="180" x2="216.73" y2="198"/><line class="cls-5" x1="18.73" y1="180" x2="18.73" y2="189"/><line class="cls-5" x1="36.73" y1="180" x2="36.73" y2="189"/><line class="cls-5" x1="54.73" y1="180" x2="54.73" y2="189"/><line class="cls-5" x1="90.73" y1="180" x2="90.73" y2="189"/><line class="cls-5" x1="108.73" y1="180" x2="108.73" y2="189"/><line class="cls-5" x1="126.73" y1="180" x2="126.73" y2="189"/><line class="cls-5" x1="162.73" y1="180" x2="162.73" y2="189"/><line class="cls-5" x1="180.73" y1="180" x2="180.73" y2="189"/><line class="cls-5" x1="198.73" y1="180" x2="198.73" y2="189"/><line class="cls-5" x1="234.73" y1="180" x2="234.73" y2="189"/><line class="cls-5" x1="252.73" y1="180" x2="252.73" y2="189"/><line class="cls-5" x1="270.73" y1="180" x2="270.73" y2="189"/></g></g></svg>