<svg xmlns="http://www.w3.org/2000/svg" viewBox="0 0 94.02 67.52"><defs><style>.cls-1{fill:#757473;}.cls-1,.cls-7{stroke:#464646;}.cls-1,.cls-3,.cls-7,.cls-9{stroke-miterlimit:10;}.cls-10,.cls-2,.cls-4,.cls-8{font-size:10px;}.cls-2{fill:#fffcf2;}.cls-10,.cls-2,.cls-4,.cls-6,.cls-8{font-family:ArialMT, Arial;}.cls-3,.cls-7{fill:#c6c4c1;}.cls-3,.cls-9{stroke:#4c4c4c;}.cls-10,.cls-4{fill:#4c4c4c;}.cls-4,.cls-8{letter-spacing:-0.1em;}.cls-10,.cls-5{letter-spacing:-0.03em;}.cls-6{font-size:16.34px;fill:#dededd;}.cls-8{fill:#464646;}.cls-9{fill:#f9f9f9;}</style></defs><g id="Layer_2" data-name="Layer 2"><g id="Layer_1-2" data-name="Layer 1"><g id="icon_design_1" data-name="icon design 1"><path class="cls-1" d="M89,51.48A12.69,12.69,0,1,1,76.34,38.79,12.68,12.68,0,0,1,89,51.48Z"/><text class="cls-2" transform="translate(70.46 55.26)">10</text><path class="cls-1" d="M51.67,33.39A12.69,12.69,0,1,1,39,20.7,12.68,12.68,0,0,1,51.67,33.39Z"/><text class="cls-2" transform="translate(33.46 37.24)">10</text><path class="cls-3" d="M35.5,16A12.69,12.69,0,1,1,22.81,3.32,12.69,12.69,0,0,1,35.5,16Z"/><text class="cls-4" transform="translate(15.33 19.63)">1<tspan class="cls-5" x="4.56" y="0">00</tspan></text><text class="cls-6" transform="translate(36.53 20.4)">10</text><path class="cls-1" d="M93.52,28.69A12.69,12.69,0,1,1,80.83,16,12.69,12.69,0,0,1,93.52,28.69Z"/><text class="cls-2" transform="translate(75.33 32.37)">10</text><path class="cls-7" d="M75,34.41A12.69,12.69,0,1,1,62.28,21.72,12.69,12.69,0,0,1,75,34.41Z"/><text class="cls-8" transform="translate(54.74 38.12)">1<tspan class="cls-5" x="4.56" y="0">00</tspan></text><path class="cls-3" d="M64.35,52.57A12.69,12.69,0,1,1,51.67,39.89,12.69,12.69,0,0,1,64.35,52.57Z"/><text class="cls-4" transform="translate(43.69 56.59)">1<tspan class="cls-5" x="4.56" y="0">00</tspan></text><path class="cls-3" d="M41.76,54.34A12.69,12.69,0,1,1,29.08,41.65,12.68,12.68,0,0,1,41.76,54.34Z"/><text class="cls-4" transform="translate(21.46 58.04)">1<tspan class="cls-5" x="4.56" y="0">00</tspan></text><path class="cls-7" d="M80.83,13.19A12.69,12.69,0,1,1,68.15.5,12.68,12.68,0,0,1,80.83,13.19Z"/><text class="cls-8" transform="translate(60.46 17.04)">1<tspan class="cls-5" x="4.56" y="0">00</tspan></text><path class="cls-9" d="M25.87,36.13A12.69,12.69,0,1,1,13.19,23.44,12.69,12.69,0,0,1,25.87,36.13Z"/><text class="cls-10" transform="translate(4.95 39.76)">560</text><circle class="cls-1" cx="45.84" cy="14.2" r="12.69" transform="translate(28.42 58.92) rotate(-85.93)"/><text class="cls-2" transform="translate(40.17 17.94)">10</text></g></g></g></svg>