<svg xmlns="http://www.w3.org/2000/svg" viewBox="0 0 579.18 67.1"><defs><style>.cls-1{fill:#6d6d6d;}.cls-15,.cls-2,.cls-4,.cls-6{font-size:16.31px;}.cls-2{fill:#cdcccb;}.cls-10,.cls-12,.cls-14,.cls-15,.cls-2,.cls-4,.cls-5,.cls-6,.cls-7,.cls-9{font-family:ArialMT, Arial;}.cls-3{fill:#e0e0e0;}.cls-4,.cls-5,.cls-9{fill:#1a1a1a;}.cls-5{font-size:15.71px;}.cls-10,.cls-6,.cls-7{fill:#dededd;}.cls-7{font-size:14.91px;}.cls-8{fill:#fff;stroke:#231f20;stroke-miterlimit:10;stroke-width:0.5px;}.cls-12,.cls-14,.cls-9{font-size:14px;}.cls-9{letter-spacing:-0.02em;}.cls-10{font-size:16.34px;}.cls-11{fill:#efefef;}.cls-12,.cls-14{fill:#1b1c1c;}.cls-12{letter-spacing:-0.1em;}.cls-13,.cls-14{letter-spacing:-0.03em;}.cls-15{fill:#dddddc;}</style></defs><g id="Layer_2" data-name="Layer 2"><g id="Layer_1-2" data-name="Layer 1"><g id="cell_view_4" data-name="cell view 4"><path class="cls-1" d="M35.24,12.69A12.69,12.69,0,1,1,22.55,0,12.69,12.69,0,0,1,35.24,12.69Z"/><text class="cls-2" transform="translate(13.16 18.68)">10</text><path class="cls-1" d="M54.5,22.55A12.69,12.69,0,1,1,41.82,9.87,12.69,12.69,0,0,1,54.5,22.55Z"/><text class="cls-2" transform="translate(32.36 28.66)">10</text><path class="cls-1" d="M77.05,16.44A12.69,12.69,0,1,1,64.37,3.76,12.68,12.68,0,0,1,77.05,16.44Z"/><text class="cls-2" transform="translate(54.71 22.55)">10</text><path class="cls-1" d="M95.85,13.16A12.69,12.69,0,1,1,83.16.47,12.69,12.69,0,0,1,95.85,13.16Z"/><text class="cls-2" transform="translate(73.55 18.87)">10</text><path class="cls-1" d="M25.37,33.36A12.69,12.69,0,1,1,12.69,20.67,12.69,12.69,0,0,1,25.37,33.36Z"/><text class="cls-2" transform="translate(3.01 39.16)">10</text><path class="cls-1" d="M56.38,54A12.69,12.69,0,1,1,43.7,41.35,12.69,12.69,0,0,1,56.38,54Z"/><text class="cls-2" transform="translate(34.12 60.14)">10</text><path class="cls-1" d="M38.53,47A12.69,12.69,0,1,1,25.84,34.3,12.69,12.69,0,0,1,38.53,47Z"/><text class="cls-2" transform="translate(16.18 53.12)">10</text><path class="cls-1" d="M81.75,52.62A12.69,12.69,0,1,1,69.07,39.94,12.69,12.69,0,0,1,81.75,52.62Z"/><text class="cls-2" transform="translate(59.61 58.73)">10</text><path class="cls-1" d="M91.62,34.3A12.69,12.69,0,1,1,78.93,21.61,12.68,12.68,0,0,1,91.62,34.3Z"/><text class="cls-2" transform="translate(69.37 40.4)">10</text><path class="cls-1" d="M66.72,37.59A12.69,12.69,0,1,1,54,24.9,12.69,12.69,0,0,1,66.72,37.59Z"/><text class="cls-2" transform="translate(44.47 43.7)">10</text><path class="cls-3" d="M330.78,51.93a12.69,12.69,0,1,1-12.69-12.69A12.69,12.69,0,0,1,330.78,51.93Z"/><text class="cls-4" transform="translate(309.2 57.76)">50</text><path class="cls-3" d="M296.2,17.08A12.69,12.69,0,1,1,283.52,4.39,12.69,12.69,0,0,1,296.2,17.08Z"/><text class="cls-4" transform="translate(274.63 23.19)">50</text><path class="cls-3" d="M291.21,35a12.69,12.69,0,1,1-12.68-12.68A12.69,12.69,0,0,1,291.21,35Z"/><text class="cls-4" transform="translate(269.84 41.08)">50</text><path class="cls-3" d="M280.78,51.46a12.69,12.69,0,1,1-12.69-12.69A12.69,12.69,0,0,1,280.78,51.46Z"/><text class="cls-4" transform="translate(259.52 57.57)">50</text><circle class="cls-3" cx="304.03" cy="34.86" r="12.69" transform="translate(-1.98 31.87) rotate(-5.98)"/><text class="cls-4" transform="translate(295.24 40.96)">50</text><path class="cls-3" d="M306.11,53a12.69,12.69,0,1,1-12.69-12.68A12.69,12.69,0,0,1,306.11,53Z"/><text class="cls-4" transform="translate(284.56 59.13)">50</text><circle class="cls-3" cx="303.29" cy="14.65" r="12.69" transform="translate(274.69 316.95) rotate(-87.36)"/><text class="cls-5" transform="translate(294.59 20.48) scale(1.04 1)">50</text><path class="cls-3" d="M336.26,25.07a12.69,12.69,0,1,1-12.69-12.69A12.69,12.69,0,0,1,336.26,25.07Z"/><text class="cls-4" transform="translate(314.52 31.18)">50</text><path class="cls-3" d="M273.66,17A12.69,12.69,0,1,1,261,4.33,12.68,12.68,0,0,1,273.66,17Z"/><text class="cls-4" transform="translate(252.19 23.13)">50</text><path class="cls-3" d="M265.44,37.67A12.69,12.69,0,1,1,252.75,25,12.69,12.69,0,0,1,265.44,37.67Z"/><text class="cls-4" transform="translate(244.14 43.88)">50</text><path class="cls-1" d="M425.24,26.8a12.69,12.69,0,1,1-12.69-12.69A12.69,12.69,0,0,1,425.24,26.8Z"/><text class="cls-6" transform="translate(403.15 32.91)">10</text><path class="cls-1" d="M410,13.09A12.69,12.69,0,1,1,397.28.41,12.69,12.69,0,0,1,410,13.09Z"/><text class="cls-6" transform="translate(387.59 19.1)">10</text><path class="cls-1" d="M440.94,16.08A12.69,12.69,0,1,1,428.26,3.39,12.69,12.69,0,0,1,440.94,16.08Z"/><text class="cls-6" transform="translate(419.15 22.19)">10</text><path class="cls-1" d="M447.71,54.39A12.69,12.69,0,1,1,435,41.71,12.69,12.69,0,0,1,447.71,54.39Z"/><text class="cls-6" transform="translate(425.64 60.5)">10</text><path class="cls-1" d="M389.9,25.43a12.69,12.69,0,1,1-12.69-12.69A12.69,12.69,0,0,1,389.9,25.43Z"/><text class="cls-6" transform="translate(368.03 31.54)">10</text><path class="cls-1" d="M411,54.39a12.69,12.69,0,1,1-12.69-12.68A12.69,12.69,0,0,1,411,54.39Z"/><text class="cls-7" transform="translate(389.13 59.88) scale(1.09 1)">10</text><path class="cls-1" d="M429,48.89A12.69,12.69,0,1,1,416.3,36.21,12.69,12.69,0,0,1,429,48.89Z"/><text class="cls-6" transform="translate(406.99 55)">10</text><path class="cls-1" d="M445.93,34.36a12.69,12.69,0,1,1-12.68-12.68A12.69,12.69,0,0,1,445.93,34.36Z"/><text class="cls-6" transform="translate(423.84 40.47)">10</text><path class="cls-1" d="M389.9,48.29A12.69,12.69,0,1,1,377.22,35.6,12.68,12.68,0,0,1,389.9,48.29Z"/><text class="cls-6" transform="translate(367.7 54.59)">10</text><path class="cls-8" d="M407.51,35.7A12.69,12.69,0,1,1,394.82,23,12.69,12.69,0,0,1,407.51,35.7Z"/><text class="cls-9" transform="translate(383.32 40.51)">460</text><path class="cls-1" d="M210.05,51.55a12.69,12.69,0,1,1-12.68-12.68A12.69,12.69,0,0,1,210.05,51.55Z"/><text class="cls-10" transform="translate(187.94 57.87)">10</text><path class="cls-1" d="M172.7,33.46A12.69,12.69,0,1,1,160,20.78,12.69,12.69,0,0,1,172.7,33.46Z"/><text class="cls-10" transform="translate(150.41 39.66)">10</text><path class="cls-11" d="M156.53,16.08A12.69,12.69,0,1,1,143.85,3.39,12.69,12.69,0,0,1,156.53,16.08Z"/><text class="cls-12" transform="translate(132.27 21.27)">1<tspan class="cls-13" x="6.39" y="0">00</tspan></text><text class="cls-10" transform="translate(157.56 20.48)">10</text><path class="cls-1" d="M214.55,28.77a12.69,12.69,0,1,1-12.68-12.69A12.68,12.68,0,0,1,214.55,28.77Z"/><text class="cls-10" transform="translate(192.54 34.97)">10</text><path class="cls-11" d="M196,34.48A12.69,12.69,0,1,1,183.31,21.8,12.69,12.69,0,0,1,196,34.48Z"/><text class="cls-12" transform="translate(171.9 39.87)">1<tspan class="cls-13" x="6.39" y="0">00</tspan></text><path class="cls-11" d="M185.39,52.65A12.69,12.69,0,1,1,172.7,40,12.69,12.69,0,0,1,185.39,52.65Z"/><text class="cls-12" transform="translate(161.37 57.96)">1<tspan class="cls-13" x="6.39" y="0">00</tspan></text><path class="cls-11" d="M162.8,54.41a12.69,12.69,0,1,1-12.69-12.68A12.69,12.69,0,0,1,162.8,54.41Z"/><text class="cls-12" transform="translate(138.43 59.63)">1<tspan class="cls-13" x="6.39" y="0">00</tspan></text><path class="cls-11" d="M201.87,13.26A12.69,12.69,0,1,1,189.18.58,12.69,12.69,0,0,1,201.87,13.26Z"/><text class="cls-12" transform="translate(177.59 18.41)">1<tspan class="cls-13" x="6.39" y="0">00</tspan></text><path class="cls-8" d="M146.9,36.21a12.69,12.69,0,1,1-12.68-12.69A12.68,12.68,0,0,1,146.9,36.21Z"/><text class="cls-14" transform="translate(122.9 41.45)">560</text><circle class="cls-1" cx="166.88" cy="14.28" r="12.69" transform="translate(140.78 179.72) rotate(-85.93)"/><text class="cls-10" transform="translate(157.56 20.48)">10</text><path class="cls-11" d="M506.33,53.24a12.69,12.69,0,1,1-12.68-12.69A12.68,12.68,0,0,1,506.33,53.24Z"/><text class="cls-12" transform="translate(482.2 58.27)">1<tspan class="cls-13" x="6.39" y="0">00</tspan></text><path class="cls-11" d="M508,37.31a12.69,12.69,0,1,1-12.69-12.68A12.69,12.69,0,0,1,508,37.31Z"/><text class="cls-12" transform="translate(484.03 42.55)">1<tspan class="cls-13" x="6.39" y="0">00</tspan></text><path class="cls-11" d="M570.77,51.17a12.69,12.69,0,1,1-12.68-12.69A12.68,12.68,0,0,1,570.77,51.17Z"/><text class="cls-12" transform="translate(546.68 56.34)">1<tspan class="cls-13" x="6.39" y="0">00</tspan></text><circle class="cls-11" cx="545.4" cy="29.16" r="12.69" transform="translate(-0.65 17.49) rotate(-1.84)"/><text class="cls-12" transform="translate(533.88 34.02)">1<tspan class="cls-13" x="6.39" y="0">00</tspan></text><path class="cls-1" d="M530,53.78A12.69,12.69,0,1,1,517.29,41.1,12.69,12.69,0,0,1,530,53.78Z"/><text class="cls-15" transform="translate(507.54 59.89)">10</text><path class="cls-1" d="M542.63,16.12A12.69,12.69,0,1,1,530,3.43,12.68,12.68,0,0,1,542.63,16.12Z"/><text class="cls-15" transform="translate(520.2 22.22)">10</text><path class="cls-1" d="M550.33,47.68A12.69,12.69,0,1,1,537.64,35,12.69,12.69,0,0,1,550.33,47.68Z"/><text class="cls-15" transform="translate(527.89 53.78)">10</text><path class="cls-1" d="M530,32.13a12.69,12.69,0,1,1-12.68-12.68A12.69,12.69,0,0,1,530,32.13Z"/><text class="cls-15" transform="translate(507.54 38.24)">10</text><path class="cls-1" d="M579.18,29.86A12.69,12.69,0,1,1,566.5,17.17,12.69,12.69,0,0,1,579.18,29.86Z"/><text class="cls-15" transform="translate(556.75 35.97)">10</text><path class="cls-11" d="M513.49,15.65A12.69,12.69,0,1,1,500.81,3,12.69,12.69,0,0,1,513.49,15.65Z"/><text class="cls-12" transform="translate(489.22 20.78)">1<tspan class="cls-13" x="6.39" y="0">00</tspan></text></g></g></g></svg>